<?xml version="1.0" encoding="utf-8"?>
<!-- Generator: Adobe Illustrator 15.0.0, SVG Export Plug-In . SVG Version: 6.00 Build 0)  -->
<!DOCTYPE svg PUBLIC "-//W3C//DTD SVG 1.1//EN" "http://www.w3.org/Graphics/SVG/1.1/DTD/svg11.dtd">
<svg version="1.1" id="Слой_1" xmlns="http://www.w3.org/2000/svg" xmlns:xlink="http://www.w3.org/1999/xlink" x="0px" y="0px"
	 width="96px" height="96px" viewBox="0 0 96 96" enable-background="new 0 0 96 96" xml:space="preserve">
<g>
	<polygon fill="none" stroke="#000000" stroke-width="0" stroke-linecap="round" stroke-linejoin="round" points="34.275,48.044 
		34.275,48.3 36.737,48.3 36.737,47.935 34.851,47.935 34.851,47.919 36.712,45.192 36.712,44.927 34.436,44.927 34.436,45.292 
		36.142,45.292 36.142,45.307 	"/>
	<path fill="none" stroke="#000000" stroke-width="0" stroke-linecap="round" stroke-linejoin="round" d="M37.065,47.659
		c0,0.351,0.25,0.696,0.741,0.696c0.345,0,0.605-0.17,0.741-0.36h0.015l0.035,0.305h0.396c-0.025-0.165-0.035-0.37-0.035-0.581
		v-0.906c0-0.48-0.18-0.986-0.921-0.986c-0.305,0-0.601,0.085-0.801,0.21l0.1,0.295c0.17-0.115,0.406-0.18,0.636-0.18
		c0.496-0.005,0.55,0.36,0.55,0.555v0.05C37.586,46.753,37.065,47.074,37.065,47.659z"/>
	<path fill="none" stroke="#000000" stroke-width="0" stroke-linecap="round" stroke-linejoin="round" d="M37.506,47.609
		c0,0.29,0.19,0.42,0.41,0.42c0.32,0,0.525-0.2,0.596-0.405c0.015-0.05,0.02-0.1,0.02-0.14v-0.42
		C38.051,47.054,37.506,47.139,37.506,47.609z"/>
	<path fill="none" stroke="#000000" stroke-width="0" stroke-linecap="round" stroke-linejoin="round" d="M39.5,48.185
		c0.17,0.1,0.416,0.17,0.681,0.17c0.565,0,0.901-0.3,0.901-0.731c0-0.36-0.22-0.57-0.636-0.726
		c-0.315-0.125-0.455-0.215-0.455-0.416c0-0.18,0.14-0.33,0.4-0.33c0.225,0,0.4,0.085,0.495,0.145l0.105-0.32
		c-0.13-0.085-0.346-0.15-0.591-0.15c-0.516,0-0.836,0.32-0.836,0.711c0,0.29,0.205,0.525,0.646,0.686
		c0.32,0.12,0.446,0.23,0.446,0.44c0,0.205-0.15,0.36-0.465,0.36c-0.221,0-0.451-0.09-0.586-0.17L39.5,48.185z"/>
	<path fill="none" stroke="#000000" stroke-width="0" stroke-linecap="round" stroke-linejoin="round" d="M41.631,45.877v1.417
		c0,0.846,0.455,1.061,0.835,1.061c0.431,0,0.691-0.255,0.801-0.451h0.01l0.025,0.396h0.39c-0.015-0.19-0.02-0.41-0.02-0.666v-1.757
		h-0.44v1.481c0,0.085-0.015,0.165-0.04,0.225c-0.08,0.2-0.286,0.405-0.581,0.405c-0.395,0-0.54-0.315-0.54-0.775v-1.336H41.631z"/>
	<path fill="none" stroke="#000000" stroke-width="0" stroke-linecap="round" stroke-linejoin="round" d="M44.4,44.746V48.3h0.44
		v-1.461c0-0.08,0.005-0.145,0.03-0.21c0.085-0.235,0.305-0.435,0.59-0.435c0.416,0,0.561,0.325,0.561,0.715V48.3h0.44v-1.441
		c0-0.831-0.521-1.031-0.846-1.031c-0.165,0-0.32,0.045-0.451,0.12c-0.135,0.075-0.245,0.19-0.315,0.315h-0.01v-1.517H44.4z"/>
	
		<rect x="47.175" y="45.877" fill="none" stroke="#000000" stroke-width="0" stroke-linecap="round" stroke-linejoin="round" width="0.44" height="2.422"/>
	<path fill="none" stroke="#000000" stroke-width="0" stroke-linecap="round" stroke-linejoin="round" d="M47.12,45.197
		c0,0.15,0.105,0.27,0.266,0.27c0.175,0,0.28-0.12,0.28-0.27c0-0.155-0.11-0.275-0.271-0.275
		C47.23,44.921,47.12,45.047,47.12,45.197z"/>
	<path fill="none" stroke="#000000" stroke-width="0" stroke-linecap="round" stroke-linejoin="round" d="M48.325,45.877
		c0.015,0.2,0.02,0.4,0.02,0.656V48.3h0.44v-1.457c0-0.075,0.011-0.15,0.031-0.205c0.08-0.245,0.305-0.451,0.59-0.451
		c0.416,0,0.561,0.326,0.561,0.716V48.3h0.44v-1.441c0-0.831-0.521-1.031-0.855-1.031c-0.4,0-0.681,0.226-0.801,0.451H48.74
		l-0.024-0.4H48.325z"/>
	
		<rect x="50.755" y="48.676" fill="none" stroke="#000000" stroke-width="0" stroke-linecap="round" stroke-linejoin="round" width="2.503" height="0.25"/>
	<polygon fill="none" stroke="#000000" stroke-width="0" stroke-linecap="round" stroke-linejoin="round" points="53.38,48.3 
		53.83,48.3 54.181,47.239 55.377,47.239 55.737,48.3 56.203,48.3 55.052,44.927 54.531,44.927 	"/>
	<path fill="none" stroke="#000000" stroke-width="0" stroke-linecap="round" stroke-linejoin="round" d="M54.602,45.922
		l-0.33,0.976h1.021l-0.335-0.971c-0.076-0.221-0.125-0.421-0.176-0.616h-0.01C54.721,45.507,54.672,45.717,54.602,45.922z"/>
	
		<rect x="56.665" y="44.746" fill="none" stroke="#000000" stroke-width="0" stroke-linecap="round" stroke-linejoin="round" width="0.44" height="3.554"/>
	<path fill="none" stroke="#000000" stroke-width="0" stroke-linecap="round" stroke-linejoin="round" d="M58.096,46.854h1.286
		c0.005-0.275-0.115-0.711-0.61-0.711C58.32,46.143,58.131,46.548,58.096,46.854z"/>
	<path fill="none" stroke="#000000" stroke-width="0" stroke-linecap="round" stroke-linejoin="round" d="M57.67,47.129
		c0,0.73,0.445,1.226,1.191,1.226c0.385,0,0.656-0.085,0.811-0.155l-0.08-0.315c-0.16,0.07-0.355,0.125-0.67,0.125
		c-0.445,0-0.821-0.246-0.831-0.841h1.701c0.011-0.05,0.015-0.115,0.015-0.206c0-0.445-0.205-1.136-1-1.136
		C58.101,45.827,57.67,46.398,57.67,47.129z"/>
	<path fill="none" stroke="#000000" stroke-width="0" stroke-linecap="round" stroke-linejoin="round" d="M60.01,48.3h0.486
		l0.35-0.545c0.096-0.145,0.176-0.275,0.256-0.42h0.01c0.085,0.145,0.165,0.28,0.26,0.42l0.361,0.545h0.495l-0.846-1.251
		l0.825-1.171h-0.48l-0.335,0.516c-0.085,0.13-0.165,0.255-0.245,0.395h-0.01c-0.08-0.135-0.155-0.255-0.25-0.39l-0.346-0.521h-0.49
		l0.82,1.186L60.01,48.3z"/>
</g>
<path fill-opacity="0.4" d="M88,49c0,29.635-10.361,40-40,40C18.365,89,8,78.635,8,49C8,19.367,18.365,9,48,9
	C77.637,9,88,19.367,88,49z"/>
<linearGradient id="SVGID_1_" gradientUnits="userSpaceOnUse" x1="-212.9448" y1="-1572.3838" x2="-212.9448" y2="-1652.3838" gradientTransform="matrix(1 0 0 -1 260.9448 -1564.7207)">
	<stop  offset="0" style="stop-color:#AFB1B3"/>
	<stop  offset="1" style="stop-color:#4A4B4D"/>
</linearGradient>
<path fill="url(#SVGID_1_)" d="M88,48c0,29.635-10.361,40-40,40C18.365,88,8,77.635,8,48C8,18.367,18.365,8,48,8
	C77.637,8,88,18.367,88,48z"/>
<linearGradient id="SVGID_2_" gradientUnits="userSpaceOnUse" x1="-212.9448" y1="-1572.9736" x2="-212.9448" y2="-1652.2183" gradientTransform="matrix(1 0 0 -1 260.9448 -1564.7207)">
	<stop  offset="0" style="stop-color:#FFFFFF"/>
	<stop  offset="1" style="stop-color:#FFFFFF;stop-opacity:0.05"/>
</linearGradient>
<path fill="url(#SVGID_2_)" fill-opacity="0.3" d="M48,8C18.365,8,8,18.367,8,48c0,29.635,10.365,40,40,40c29.639,0,40-10.365,40-40
	C88,18.367,77.637,8,48,8z M48,87C18.842,87,9,77.158,9,48S18.842,9,48,9s39,9.842,39,39S77.158,87,48,87z"/>
<linearGradient id="SVGID_3_" gradientUnits="userSpaceOnUse" x1="-19.0195" y1="-796.8799" x2="-19.0195" y2="-791.8799" gradientTransform="matrix(1 0 0 -1 67.0195 -748.8799)">
	<stop  offset="0" style="stop-color:#000000;stop-opacity:0.15"/>
	<stop  offset="1" style="stop-color:#000000;stop-opacity:0"/>
</linearGradient>
<rect x="8" y="43" fill="url(#SVGID_3_)" width="80" height="5"/>
<rect x="8" y="46" fill-opacity="0.05" width="80" height="2"/>
<path fill="#FFFFFF" fill-opacity="0.5" d="M8.021,50h79.956c0.006-0.33,0.01-0.665,0.012-1H8.012
	C8.014,49.335,8.016,49.67,8.021,50z"/>
<rect fill="none" width="96" height="96"/>
<path fill-opacity="0.02" d="M15,48V29c0-3.309,2.691-6,6-6h18c3.656,0,5.799,2.143,6.828,3.172L47.656,28H76c3.309,0,6,2.691,6,6
	v14H15z"/>
<path fill-opacity="0.05" d="M16,48V29c0-2.757,2.242-5,5-5h18c3.242,0,5.115,1.873,6.121,2.879L47.242,29H76c2.756,0,5,2.243,5,5
	v14H16z"/>
<path fill-opacity="0.05" d="M17,48V29c0-2.206,1.793-4,4-4h18c2.828,0,4.51,1.683,5.414,2.586L46.828,30H76c2.205,0,4,1.794,4,4v14
	H17z"/>
<path fill-opacity="0.1" d="M18,48V29c0-1.654,1.346-3,3-3h18c2.414,0,3.793,1.38,4.707,2.293L46.414,31H76c1.654,0,3,1.346,3,3v14
	H18z"/>
<linearGradient id="SVGID_4_" gradientUnits="userSpaceOnUse" x1="-18.5195" y1="-835.3799" x2="-18.5195" y2="-778.5168" gradientTransform="matrix(1 0 0 -1 67.0195 -748.8799)">
	<stop  offset="0" style="stop-color:#D68612"/>
	<stop  offset="1" style="stop-color:#F9D641"/>
</linearGradient>
<path fill="url(#SVGID_4_)" d="M78,48V33c0-1.1-0.9-2-2-2H46c0,0,0,0-3-3c-0.855-0.854-2-2-4-2c-4,0-18,0-18,0c-1.1,0-2,0.9-2,2v20
	H78z"/>
<path fill="#FFFFFF" fill-opacity="0.5" d="M21,27h18c3,0,4,1,4,1c-0.855-0.854-2-2-4-2c-4,0-18,0-18,0c-1.1,0-2,0.9-2,2
	C19,28,19,27,21,27z"/>
<path fill="#FFFFFF" fill-opacity="0.5" d="M47.414,32H76c2,0,2,1,2,1c0-1.1-0.9-2-2-2H46l0.707,0.707
	C46.895,31.895,47.148,32,47.414,32z"/>
<linearGradient id="SVGID_5_" gradientUnits="userSpaceOnUse" x1="-18.5195" y1="-796.8799" x2="-18.5195" y2="-793.8799" gradientTransform="matrix(1 0 0 -1 67.0195 -748.8799)">
	<stop  offset="0" style="stop-color:#000000;stop-opacity:0.1"/>
	<stop  offset="1" style="stop-color:#000000;stop-opacity:0"/>
</linearGradient>
<rect x="19" y="45" fill="url(#SVGID_5_)" width="59" height="3"/>
<rect x="19" y="47" fill-opacity="0.06" width="59" height="1"/>
<path fill-opacity="0.02" d="M47.992,80.963c-7.144,0-12.955-5.813-12.955-12.956c0-7.146,5.812-12.961,12.955-12.961
	c7.146,0,12.961,5.813,12.961,12.961C60.953,75.15,55.139,80.963,47.992,80.963z M47.385,68.368l0.602-0.361l-0.602-0.36V68.368z"/>
<path fill-opacity="0.05" d="M47.992,79.963c-6.592,0-11.955-5.363-11.955-11.956c0-6.596,5.363-11.961,11.955-11.961
	c6.596,0,11.961,5.365,11.961,11.961C59.953,74.6,54.588,79.963,47.992,79.963z M46.385,70.134l3.547-2.127l-3.547-2.127V70.134z"/>
<path fill-opacity="0.05" d="M47.992,78.963c-6.041,0-10.955-4.915-10.955-10.956c0-6.044,4.915-10.961,10.955-10.961
	c6.044,0,10.961,4.917,10.961,10.961C58.953,74.048,54.036,78.963,47.992,78.963z M45.385,71.898l6.49-3.894l-6.49-3.894V71.898z"/>
<path fill-opacity="0.1" d="M57.953,68.007c0,5.498-4.459,9.956-9.961,9.956c-5.497,0-9.955-4.458-9.955-9.956
	c0-5.501,4.458-9.961,9.955-9.961C53.494,58.046,57.953,62.505,57.953,68.007 M53.008,67.52l-7.816-4.688
	c-0.445-0.268-0.807-0.061-0.807,0.458v9.435c0,0.521,0.359,0.726,0.807,0.457l7.816-4.688C53.451,68.225,53.451,67.79,53.008,67.52
	"/>
<linearGradient id="SVGID_6_" gradientUnits="userSpaceOnUse" x1="3.3154" y1="820.8828" x2="3.3154" y2="800.9658" gradientTransform="matrix(1 0 0 1 44.6797 -744.9199)">
	<stop  offset="0" style="stop-color:#D2CBC5"/>
	<stop  offset="0.6768" style="stop-color:#F8FBEE"/>
	<stop  offset="1" style="stop-color:#F8FBEE"/>
</linearGradient>
<path fill="url(#SVGID_6_)" d="M57.953,66.007c0,5.498-4.459,9.956-9.961,9.956c-5.497,0-9.955-4.458-9.955-9.956
	c0-5.501,4.458-9.961,9.955-9.961C53.494,56.046,57.953,60.505,57.953,66.007 M53.008,65.52l-7.816-4.688
	c-0.445-0.268-0.807-0.061-0.807,0.458v9.435c0,0.521,0.359,0.726,0.807,0.457l7.816-4.688C53.451,66.225,53.451,65.79,53.008,65.52
	"/>
</svg>
