<?xml version="1.0" encoding="utf-8"?>
<!-- Generator: Adobe Illustrator 15.0.0, SVG Export Plug-In . SVG Version: 6.00 Build 0)  -->
<!DOCTYPE svg PUBLIC "-//W3C//DTD SVG 1.1//EN" "http://www.w3.org/Graphics/SVG/1.1/DTD/svg11.dtd">
<svg version="1.1" id="Слой_1" xmlns="http://www.w3.org/2000/svg" xmlns:xlink="http://www.w3.org/1999/xlink" x="0px" y="0px"
	 width="30px" height="30px" viewBox="0 0 30 30" enable-background="new 0 0 30 30" xml:space="preserve">
<path fill-opacity="0.3" d="M27,5h-2c-0.553,0-1,0.447-1,1v6.457l-9.658-7.341C14.206,5.038,14.051,5,13.901,5
	c-0.156,0-0.314,0.04-0.455,0.122C13.168,5.286,13,5.579,13,5.899v6.557L3.342,5.115C3.205,5.038,3.052,5,2.9,5
	C2.744,5,2.586,5.04,2.445,5.122C2.169,5.286,2,5.579,2,5.899v16.203c0,0.319,0.169,0.614,0.445,0.776C2.586,22.962,2.744,23,2.9,23
	c0.151,0,0.305-0.037,0.441-0.115L13,15.544v6.558c0,0.319,0.168,0.614,0.445,0.776c0.141,0.084,0.3,0.122,0.456,0.122
	c0.15,0,0.305-0.037,0.441-0.115L24,15.544V22c0,0.553,0.447,1,1,1h2c0.553,0,1-0.447,1-1V6C28,5.447,27.553,5,27,5z"/>
<path fill-opacity="0.15" d="M25,25c-1.104,0-2-0.896-2-2v-4.439l-8.052,6.121c-0.037,0.026-0.074,0.053-0.113,0.073
	C14.549,24.916,14.227,25,13.901,25c-0.346,0-0.68-0.09-0.969-0.264C12.36,24.4,12,23.773,12,23.102v-4.541l-8.053,6.121
	c-0.036,0.026-0.074,0.053-0.113,0.073C3.55,24.916,3.228,25,2.9,25c-0.345,0-0.679-0.09-0.968-0.264C1.36,24.4,1,23.773,1,23.102
	V6.899c0-0.668,0.358-1.295,0.935-1.638C2.231,5.089,2.563,5,2.9,5c0.328,0,0.65,0.085,0.934,0.244
	c0.039,0.022,0.077,0.048,0.113,0.075L12,11.439v-4.54c0-0.668,0.357-1.295,0.934-1.638C13.231,5.089,13.563,5,13.901,5
	c0.326,0,0.648,0.085,0.934,0.244c0.039,0.022,0.076,0.048,0.113,0.075L23,11.439V7c0-1.103,0.896-2,2-2h2c1.102,0,2,0.897,2,2v16
	c0,1.104-0.898,2-2,2H25z"/>
<path fill="#FFFFFF" d="M27,6h-2c-0.553,0-1,0.447-1,1v6.457l-9.658-7.341C14.206,6.038,14.051,6,13.901,6
	c-0.156,0-0.314,0.04-0.455,0.122C13.168,6.286,13,6.579,13,6.899v6.557L3.342,6.115C3.205,6.038,3.052,6,2.9,6
	C2.744,6,2.586,6.04,2.445,6.122C2.169,6.286,2,6.579,2,6.899v16.203c0,0.319,0.169,0.614,0.445,0.776C2.586,23.962,2.744,24,2.9,24
	c0.151,0,0.305-0.037,0.441-0.115L13,16.544v6.558c0,0.319,0.168,0.614,0.445,0.776c0.141,0.084,0.3,0.122,0.456,0.122
	c0.15,0,0.305-0.037,0.441-0.115L24,16.544V23c0,0.553,0.447,1,1,1h2c0.553,0,1-0.447,1-1V7C28,6.447,27.553,6,27,6z"/>
<rect fill="none" width="30" height="30"/>
</svg>
