<?xml version="1.0" encoding="utf-8"?>
<!-- Generator: Adobe Illustrator 15.0.0, SVG Export Plug-In . SVG Version: 6.00 Build 0)  -->
<!DOCTYPE svg PUBLIC "-//W3C//DTD SVG 1.1//EN" "http://www.w3.org/Graphics/SVG/1.1/DTD/svg11.dtd">
<svg version="1.1" id="Слой_1" xmlns="http://www.w3.org/2000/svg" xmlns:xlink="http://www.w3.org/1999/xlink" x="0px" y="0px"
	 width="27px" height="27px" viewBox="0 0 27 27" enable-background="new 0 0 27 27" xml:space="preserve">
<path fill-opacity="0.5" d="M6.817,26c-1.604,0-2.909-0.688-3.494-1.838c-0.382-0.753-0.428-1.619-0.131-2.504
	c0.434-1.293,1.586-2.5,3.082-3.229C7.152,18.001,8.092,17.764,9,17.74V6c0-1.024,0.752-1.969,1.75-2.199L21.801,1.25
	c0.146-0.033,0.292-0.05,0.438-0.05C23.242,1.2,24,1.974,24,3v15.924c0.008,1.684-1.275,3.401-3.271,4.375
	C19.785,23.758,18.779,24,17.818,24h-0.002c-1.604,0-2.908-0.688-3.493-1.838c-0.382-0.753-0.428-1.619-0.132-2.504
	c0.435-1.293,1.586-2.5,3.082-3.229c0.879-0.429,1.817-0.666,2.727-0.688V8.719l-7,1.615V21c-0.048,1.676-1.332,3.352-3.272,4.299
	C8.785,25.758,7.779,26,6.817,26L6.817,26z"/>
<linearGradient id="SVGID_1_" gradientUnits="userSpaceOnUse" x1="-8.8394" y1="-97.96" x2="-8.8394" y2="-75.1602" gradientTransform="matrix(1 0 0 -1 22.3398 -72.96)">
	<stop  offset="0" style="stop-color:#D0CBC5"/>
	<stop  offset="1" style="stop-color:#FCFCF9"/>
</linearGradient>
<path fill="url(#SVGID_1_)" d="M22.025,2.225l-11.05,2.55C10.438,4.899,10,5.45,10,6v12.818c-0.965-0.193-2.148-0.045-3.287,0.51
	c-2.091,1.02-3.21,2.979-2.498,4.381c0.711,1.4,2.982,1.71,5.074,0.689C10.924,23.604,11.965,22.23,12,21V9.539l9-2.077v9.358
	c-0.965-0.194-2.148-0.047-3.287,0.509c-2.091,1.019-3.21,2.979-2.498,4.381c0.711,1.399,2.982,1.71,5.074,0.69
	c1.669-0.813,2.717-2.226,2.711-3.477V3C23,2.45,22.563,2.101,22.025,2.225z"/>
<rect fill="none" width="27" height="27"/>
</svg>
