<?xml version="1.0" encoding="UTF-8"?>
<!DOCTYPE svg PUBLIC "-//W3C//DTD SVG 1.1 Tiny//EN" "http://www.w3.org/Graphics/SVG/1.1/DTD/svg11-tiny.dtd">
<svg baseProfile="tiny" height="30px" version="1.1" viewBox="0 0 30 30" width="30px" x="0px" xmlns="http://www.w3.org/2000/svg" xmlns:xlink="http://www.w3.org/1999/xlink" y="0px">
<path d="M8,24c-0.174,0-0.35-0.045-0.505-0.137C7.188,23.684,7,23.355,7,23V5c0-0.355,0.188-0.684,0.495-0.863  C7.65,4.046,7.826,4,8,4c0.169,0,0.338,0.043,0.49,0.129l15,9C23.805,13.306,24,13.639,24,14s-0.195,0.694-0.51,0.871l-15,9  C8.338,23.957,8.169,24,8,24L8,24z" fill-opacity="0.3" stroke-opacity="0.3"/>
<path d="M8,26c-0.358,0-0.709-0.096-1.014-0.276C6.379,25.368,6,24.707,6,24V6c0-0.707,0.379-1.368,0.989-1.726  C7.296,4.095,7.646,4,8,4c0.343,0,0.683,0.089,0.981,0.258l15.023,9.014C24.61,13.61,25,14.278,25,15s-0.391,1.39-1.02,1.743  L9.005,25.729C8.683,25.911,8.343,26,8,26L8,26z" fill-opacity="0.15" stroke-opacity="0.15"/>
<path d="M8,25c-0.174,0-0.35-0.045-0.505-0.137C7.188,24.684,7,24.355,7,24V6c0-0.355,0.188-0.684,0.495-0.863  C7.65,5.046,7.826,5,8,5c0.169,0,0.338,0.043,0.49,0.129l15,9C23.805,14.306,24,14.639,24,15s-0.195,0.694-0.51,0.871l-15,9  C8.338,24.957,8.169,25,8,25L8,25z" fill="#FFFFFF"/>
<rect fill="none" height="30" width="30"/>
</svg>
